<?xml version="1.0" encoding="UTF-8"?>
<svg version="1.1" xmlns="http://www.w3.org/2000/svg" width="500" height="500">
<path d="M0 0 C10.23 0.33 20.46 0.66 31 1 C31 27.07 31 53.14 31 80 C40.2331638 69.15660289 40.2331638 69.15660289 48.6875 57.8125 C49.21021484 57.07708984 49.73292969 56.34167969 50.27148438 55.58398438 C53.02146921 52.10446065 53.02146921 52.10446065 54 48 C50.7 46.35 47.4 44.7 44 43 C50.34949557 37.80495817 56.65290813 33.59240456 63.87890625 29.75390625 C68.1509326 27.35323062 72.23328583 24.6899102 76.31665039 21.98339844 C78.87241084 20.30212074 81.0813313 18.97288957 84 18 C84.96986046 33.34457806 85.10842685 48.62748284 85 64 C81.7 62.68 78.4 61.36 75 60 C74.29037109 61.09054688 74.29037109 61.09054688 73.56640625 62.203125 C63.35238733 77.73321225 52.02237479 92.11026506 38.9375 105.3125 C38.28185059 105.97741455 37.62620117 106.6423291 36.95068359 107.32739258 C36.02956787 108.24234497 36.02956787 108.24234497 35.08984375 109.17578125 C34.54191162 109.72145752 33.99397949 110.26713379 33.42944336 110.8293457 C32 112 32 112 30 112 C30.33 127.84 30.66 143.68 31 160 C36.94 156.535 36.94 156.535 43 153 C43.66 153 44.32 153 45 153 C44.98445572 152.39136108 44.96891144 151.78272217 44.95289612 151.15563965 C44.79751794 144.79643648 44.69224471 138.43777596 44.61547852 132.07714844 C44.58036833 129.70648278 44.53266745 127.3359677 44.47192383 124.96582031 C44.38659382 121.5497517 44.34721563 118.13569326 44.31640625 114.71875 C44.28027725 113.66635132 44.24414825 112.61395264 44.20692444 111.52966309 C44.20332684 104.72231915 45.52425159 101.23773848 50.29747009 96.3380127 C52 95 52 95 54 95 C54.06948567 102.90156605 54.12280364 110.80300463 54.15543652 118.70480061 C54.17109805 122.37386676 54.19234475 126.04272401 54.22631836 129.71166992 C54.25889514 133.25188947 54.27684934 136.79190799 54.28463173 140.33226585 C54.29287924 142.34147655 54.31630137 144.35060628 54.33988953 146.35969543 C54.34022942 148.19125435 54.34022942 148.19125435 54.34057617 150.05981445 C54.35056892 151.67530937 54.35056892 151.67530937 54.36076355 153.32344055 C54 156 54 156 52.63230896 157.77383423 C50.39108096 159.45741077 48.05429556 160.83650273 45.6171875 162.22265625 C44.00384521 163.14582642 44.00384521 163.14582642 42.35791016 164.08764648 C41.19695041 164.74594916 40.03598012 165.40423324 38.875 166.0625 C37.07947417 167.08763474 35.28493865 168.11448822 33.490448 169.14143372 C32.30043273 169.8223089 31.11010532 170.50263882 29.91946411 171.18241882 C25.4637548 173.72756935 21.03731636 176.31811405 16.625 178.9375 C9.53774177 183.12493072 2.4125672 187.24659187 -4.72589111 191.34597778 C-5.97791283 192.06558345 -7.22919292 192.78648121 -8.47967529 193.50875854 C-10.24730677 194.52919074 -12.01780106 195.54447856 -13.7890625 196.55859375 C-14.81725098 197.14954834 -15.84543945 197.74050293 -16.90478516 198.34936523 C-26.09001715 203.24772093 -26.09001715 203.24772093 -29.921875 202.20458984 C-30.85515625 201.67043457 -31.7884375 201.1362793 -32.75 200.5859375 C-33.78769531 200.00811523 -34.82539063 199.43029297 -35.89453125 198.83496094 C-36.91933594 198.22942383 -37.94414062 197.62388672 -39 197 C-39.91136719 196.48469727 -40.82273437 195.96939453 -41.76171875 195.43847656 C-44.5261714 193.86354569 -47.26421547 192.24917323 -50 190.625 C-60.20775298 184.61576067 -70.46896251 178.7093963 -80.76757812 172.85791016 C-87.18580307 169.20409278 -93.57124012 165.5006796 -99.93383789 161.75097656 C-100.71334053 161.29199982 -101.49284317 160.83302307 -102.2959671 160.36013794 C-104.19751109 159.24043041 -106.09885108 158.12037814 -108 157 C-108.17072159 145.01234523 -108.27108994 133.02634147 -108.28240681 121.03741455 C-108.28985701 115.46976556 -108.32125382 109.90442592 -108.40795898 104.33740234 C-108.49079872 98.96138244 -108.50997364 93.58850983 -108.48558617 88.21194458 C-108.48737399 86.16416862 -108.51185113 84.11627923 -108.55968666 82.06906128 C-108.90310381 66.45911463 -108.90310381 66.45911463 -105.74783897 62.3820076 C-102.26114434 59.32124194 -98.29503559 57.70245071 -94 56 C-92.01995926 54.9099736 -90.05224303 53.7968228 -88.10546875 52.6484375 C-86.13402738 51.55509819 -84.1613372 50.46400809 -82.1875 49.375 C-73.54676692 44.57401188 -64.96597385 39.68514209 -56.4375 34.6875 C-55.44395508 34.10846924 -54.45041016 33.52943848 -53.42675781 32.93286133 C-48.99386784 30.34848795 -44.57399053 27.74837533 -40.1875 25.0859375 C-38.77099503 24.2445194 -37.35434032 23.40335329 -35.9375 22.5625 C-35.32511475 22.17860107 -34.71272949 21.79470215 -34.08178711 21.39916992 C-31.15451071 19.68465162 -29.08835588 19.0017692 -25.68359375 18.93359375 C-20.67220599 20.38439848 -16.56590873 22.80421902 -12.125 25.5 C-11.25875 26.01175781 -10.3925 26.52351563 -9.5 27.05078125 C-3.21660835 30.78339165 -3.21660835 30.78339165 -2 32 C-1.92794489 33.68608966 -1.91613932 35.37500659 -1.9375 37.0625 C-1.94652344 37.98160156 -1.95554687 38.90070313 -1.96484375 39.84765625 C-1.97644531 40.55792969 -1.98804688 41.26820313 -2 42 C-2.90621094 41.48050781 -3.81242187 40.96101563 -4.74609375 40.42578125 C-6.6191082 39.35213939 -8.49331886 38.28081597 -10.37084961 37.21508789 C-13.18863033 35.61534545 -15.99014434 34.00600274 -18.7578125 32.3203125 C-19.51835937 31.86398438 -20.27890625 31.40765625 -21.0625 30.9375 C-21.71347656 30.53402344 -22.36445313 30.13054687 -23.03515625 29.71484375 C-25.73957284 28.73093076 -27.22616694 29.25253177 -30 30 C-31.93527142 30.95454667 -33.8329214 31.98709091 -35.69921875 33.0703125 C-36.81345215 33.71226562 -37.92768555 34.35421875 -39.07568359 35.015625 C-40.27969103 35.71863246 -41.48362811 36.42176044 -42.6875 37.125 C-43.93532775 37.84701457 -45.1835432 38.56835946 -46.43212891 39.2890625 C-49.01113886 40.77914065 -51.58781978 42.27312899 -54.16259766 43.77050781 C-57.81577151 45.89454525 -61.47504271 48.00784799 -65.13671875 50.1171875 C-69.40286567 52.57498756 -73.66726434 55.03574849 -77.9296875 57.5 C-84.60942027 61.35137745 -91.30540405 65.1745166 -98 69 C-98 96.39 -98 123.78 -98 152 C-91.76129868 155.79841476 -91.76129868 155.79841476 -83 154 C-83 141.13 -83 128.26 -83 115 C-73.76 114.67 -64.52 114.34 -55 114 C-55 123.24 -55 132.48 -55 142 C-51.04 140.02 -47.08 138.04 -43 136 C-42.34 136 -41.68 136 -41 136 C-41 114.55 -41 93.1 -41 71 C-26.645 70.505 -26.645 70.505 -12 70 C-11.67 84.85 -11.34 99.7 -11 115 C-6.41940329 113.85485082 -3.10703395 112.64632248 0 109 C1.00957254 105.4769835 0.88625008 102.06967484 0.79467773 98.42651367 C0.79621101 96.83070969 0.79621101 96.83070969 0.79777527 95.20266724 C0.79290263 91.69008046 0.73847142 88.18010073 0.68359375 84.66796875 C0.67053654 82.23132243 0.66057296 79.79465772 0.65357971 77.35798645 C0.62686462 70.94761329 0.55810938 64.53835207 0.48065186 58.12841797 C0.40901892 51.58641604 0.37706791 45.04423427 0.34179688 38.50195312 C0.26674384 25.66740183 0.14362024 12.83396738 0 0 Z M-12 116 C-11 118 -11 118 -11 118 Z M-9.57275391 140.09814453 C-15.01150631 146.60035848 -13.07208849 156.42578956 -12.6875 164.4375 C-12.63228672 166.42890202 -12.58210291 168.42045025 -12.53710938 170.41210938 C-12.41623459 175.27836014 -12.22668274 180.13757587 -12 185 C-10.01963514 184.02325896 -8.04073867 183.04354018 -6.0625 182.0625 C-4.96035156 181.51722656 -3.85820312 180.97195313 -2.72265625 180.41015625 C-0.15205586 179.25295022 -0.15205586 179.25295022 1 178 C1.08874135 174.89748799 1.11518455 171.8173188 1.09765625 168.71484375 C1.09553383 167.31861534 1.09553383 167.31861534 1.09336853 165.8941803 C1.08775172 162.90858809 1.0751964 159.92306971 1.0625 156.9375 C1.05748716 154.91862087 1.05292388 152.89974057 1.04882812 150.88085938 C1.03777683 145.92054428 1.02050095 140.96028468 1 136 C-3.08960119 136 -6.21285478 137.9209299 -9.57275391 140.09814453 Z M-48 160.4375 C-49.093125 160.88996094 -50.18625 161.34242188 -51.3125 161.80859375 C-53.8690254 162.74907194 -53.8690254 162.74907194 -55 164 C-55.67423498 168.44613443 -55.83564193 172.57163003 -55 177 C-51.26672196 181.33028412 -46.20433549 182.9182658 -41 185 C-41 176.09 -41 167.18 -41 158 C-43.32373483 158 -45.91441047 159.56932417 -48 160.4375 Z " fill="#F3F6FA" transform="translate(261,148)"/>
<path d="M0 0 C2.625 0.375 2.625 0.375 5 1 C5.91058531 4.07322544 6.08886184 6.80097361 6 10 C3.6875 10.625 3.6875 10.625 1 11 C0.01 10.34 -0.98 9.68 -2 9 C-2 8.34 -2 7.68 -2 7 C-0.68 7 0.64 7 2 7 C1.01 6.67 0.02 6.34 -1 6 C-1.8125 4.0625 -1.8125 4.0625 -2 2 C-1.34 1.34 -0.68 0.68 0 0 Z " fill="#F9FAFB" transform="translate(232,200)"/>
<path d="M0 0 C1.20508082 3.61524247 0.95808288 5.4071892 0 9 C-1.65 9.33 -3.3 9.66 -5 10 C-5.66 8.68 -6.32 7.36 -7 6 C-5.68 6 -4.36 6 -3 6 C-4.32 5.34 -5.64 4.68 -7 4 C-7 2.68 -7 1.36 -7 0 C-4.3333581 -1.33332095 -2.83319697 -0.67102033 0 0 Z M-4 1 C-4 1.66 -4 2.32 -4 3 C-3.34 2.67 -2.68 2.34 -2 2 C-2.66 1.67 -3.32 1.34 -4 1 Z " fill="#F9F9F9" transform="translate(248,201)"/>
<path d="M0 0 C2.31 0 4.62 0 7 0 C6.38722388 2.96175123 5.74627478 4.38058783 4 7 C4.99 7.33 5.98 7.66 7 8 C6.67 8.99 6.34 9.98 6 11 C3.69 10.67 1.38 10.34 -1 10 C-0.01 8.02 0.98 6.04 2 4 C1.34 3.67 0.68 3.34 0 3 C0 2.01 0 1.02 0 0 Z " fill="#FAFAFA" transform="translate(221,200)"/>
<path d="M0 0 C1 4 1 4 1 4 Z " fill="#FFFFFF" transform="translate(176,264)"/>
<path d="M0 0 C0.66 0 1.32 0 2 0 C1.67 0.66 1.34 1.32 1 2 C0.67 1.34 0.34 0.68 0 0 Z " fill="#FFFFFF" transform="translate(308,245)"/>
<path d="" fill="#FFFFFF" transform="translate(0,0)"/>
<path d="" fill="#FFFFFF" transform="translate(0,0)"/>
<path d="" fill="#FFFFFF" transform="translate(0,0)"/>
<path d="" fill="#FFFFFF" transform="translate(0,0)"/>
<path d="" fill="#FFFFFF" transform="translate(0,0)"/>
<path d="" fill="#FFFFFF" transform="translate(0,0)"/>
<path d="" fill="#FFFFFF" transform="translate(0,0)"/>
<path d="" fill="#FFFFFF" transform="translate(0,0)"/>
<path d="" fill="#FFFFFF" transform="translate(0,0)"/>
<path d="" fill="#FFFFFF" transform="translate(0,0)"/>
<path d="" fill="#FFFFFF" transform="translate(0,0)"/>
<path d="" fill="#FFFFFF" transform="translate(0,0)"/>
</svg>
