<?xml version="1.0" encoding="UTF-8"?>
<!DOCTYPE svg PUBLIC "-//W3C//DTD SVG 1.1//EN" "http://www.w3.org/Graphics/SVG/1.1/DTD/svg11.dtd">
<svg xmlns="http://www.w3.org/2000/svg" version="1.1" width="626px" height="626px" style="shape-rendering:geometricPrecision; text-rendering:geometricPrecision; image-rendering:optimizeQuality; fill-rule:evenodd; clip-rule:evenodd" xmlns:xlink="http://www.w3.org/1999/xlink">
<g><path style="opacity:1" fill="rgba(0, 0, 0, 0)"  d="M -0.5,-0.5 C 208.167,-0.5 416.833,-0.5 625.5,-0.5C 625.5,208.167 625.5,416.833 625.5,625.5C 416.833,625.5 208.167,625.5 -0.5,625.5C -0.5,416.833 -0.5,208.167 -0.5,-0.5 Z"/></g>
<g><path style="opacity:1" fill="#dcedf7" d="M 521.5,447.5 C 524.067,444.493 527.067,441.826 530.5,439.5C 538.646,426.037 539.646,412.037 533.5,397.5C 533.328,395.508 533.995,393.842 535.5,392.5C 538.086,391.52 540.753,391.187 543.5,391.5C 543.027,383.953 544.027,376.62 546.5,369.5C 547.584,370.665 548.417,371.998 549,373.5C 549.635,371.365 549.301,369.365 548,367.5C 545.025,348.854 544.858,330.188 547.5,311.5C 546.833,306.167 546.167,300.833 545.5,295.5C 548.143,272.807 548.143,250.14 545.5,227.5C 541.5,227.5 539.5,225.5 539.5,221.5C 538.167,221.5 536.833,221.5 535.5,221.5C 532.478,216.779 529.812,211.779 527.5,206.5C 521.391,205.232 515.391,205.565 509.5,207.5C 509.5,211.5 509.5,215.5 509.5,219.5C 505.5,220.833 501.5,222.167 497.5,223.5C 496.886,259.594 497.553,295.594 499.5,331.5C 497.712,331.215 496.045,331.548 494.5,332.5C 494.624,333.107 494.957,333.44 495.5,333.5C 498.305,334.319 501.305,334.819 504.5,335C 503.207,335.49 501.873,335.657 500.5,335.5C 499.945,348.827 499.611,362.16 499.5,375.5C 500.978,375.238 502.311,375.571 503.5,376.5C 499.737,376.896 496.403,377.896 493.5,379.5C 493.5,380.833 492.833,381.5 491.5,381.5C 491.833,323.496 491.5,265.496 490.5,207.5C 487.167,204.167 483.833,200.833 480.5,197.5C 476.148,202.018 471.981,206.684 468,211.5C 467.536,210.906 467.369,210.239 467.5,209.5C 468.724,202.941 470.724,196.607 473.5,190.5C 472.833,190.167 472.167,189.833 471.5,189.5C 458.071,193.524 444.738,197.857 431.5,202.5C 432.193,203.518 432.859,204.518 433.5,205.5C 407.992,207.46 382.326,208.127 356.5,207.5C 356.333,193.829 356.5,180.163 357,166.5C 368.396,160.298 370.563,151.632 363.5,140.5C 355.878,134.431 349.378,135.431 344,143.5C 343.333,148.5 343.333,153.5 344,158.5C 346.184,162.692 349.517,165.358 354,166.5C 354.5,180.163 354.667,193.829 354.5,207.5C 345.494,207.334 336.494,207.5 327.5,208C 315.266,220.733 302.932,233.233 290.5,245.5C 289.167,207.167 289.167,168.833 290.5,130.5C 291.33,136.472 291.83,142.472 292,148.5C 351.222,104.042 415.056,96.5421 483.5,126C 490.058,130.779 497.058,134.779 504.5,138C 511.019,144.02 517.685,149.853 524.5,155.5C 525.85,156.95 527.516,157.617 529.5,157.5C 532.616,163.474 536.783,168.807 542,173.5C 552.014,188.544 560.347,204.544 567,221.5C 580.234,266.77 574.734,309.436 550.5,349.5C 548.92,358.306 549.42,366.972 552,375.5C 556.992,381.494 561.992,387.494 567,393.5C 573.466,411.63 569.299,426.963 554.5,439.5C 545.663,443.978 536.329,445.645 526.5,444.5C 524.971,445.763 523.305,446.763 521.5,447.5 Z"/></g>
<g><path style="opacity:1" fill="#6da1cd" d="M 249.5,115.5 C 251.176,116.183 251.843,117.517 251.5,119.5C 255.5,119.833 255.5,120.167 251.5,120.5C 250.833,124.5 250.167,124.5 249.5,120.5C 244.167,119.833 244.167,119.167 249.5,118.5C 249.5,117.5 249.5,116.5 249.5,115.5 Z"/></g>
<g><path style="opacity:1" fill="#1f88ca" d="M 243.5,179.5 C 242.647,183.37 240.647,186.536 237.5,189C 225.715,190.079 214.049,190.913 202.5,191.5C 202.167,191.5 201.833,191.5 201.5,191.5C 190.167,191.5 178.833,191.5 167.5,191.5C 165.058,190.101 162.724,188.434 160.5,186.5C 159.167,170.833 159.167,155.167 160.5,139.5C 162.36,136.14 165.027,133.64 168.5,132C 190.897,131.032 213.23,131.366 235.5,133C 238.578,135.323 241.078,138.157 243,141.5C 243.5,154.162 243.667,166.829 243.5,179.5 Z"/></g>
<g><path style="opacity:1" fill="#90bfe3" d="M 356.5,207.5 C 355.833,207.5 355.167,207.5 354.5,207.5C 354.667,193.829 354.5,180.163 354,166.5C 349.517,165.358 346.184,162.692 344,158.5C 343.333,153.5 343.333,148.5 344,143.5C 349.378,135.431 355.878,134.431 363.5,140.5C 370.563,151.632 368.396,160.298 357,166.5C 356.5,180.163 356.333,193.829 356.5,207.5 Z"/></g>
<g><path style="opacity:1" fill="#e7eae9" d="M 205.5,151.5 C 209.717,152.275 213.384,154.108 216.5,157C 212.109,159.058 207.609,160.892 203,162.5C 202.383,161.551 202.549,160.718 203.5,160C 206.055,158.556 208.721,157.389 211.5,156.5C 208.25,156.215 206.25,154.548 205.5,151.5 Z"/></g>
<g><path style="opacity:1" fill="#9fc6e3" d="M 442.5,149.5 C 443.5,149.5 444.5,149.5 445.5,149.5C 444.237,154.727 446.237,157.56 451.5,158C 447.13,158.038 444.63,160.205 444,164.5C 443.167,161 441,158.833 437.5,158C 441.48,156.586 443.146,153.753 442.5,149.5 Z"/></g>
<g><path style="opacity:1" fill="#eaeaef" d="M 196.5,162.5 C 198.549,162.706 198.883,163.539 197.5,165C 187.423,168.004 187.089,167.171 196.5,162.5 Z"/></g>
<g><path style="opacity:1" fill="#3c8dc9" d="M 517.5,159.5 C 524.484,159.317 527.317,162.65 526,169.5C 522.261,174.277 518.261,174.61 514,170.5C 512.676,165.788 513.842,162.122 517.5,159.5 Z"/></g>
<g><path style="opacity:1" fill="#ddebf2" d="M 517.5,161.5 C 524.821,162.319 526.154,165.486 521.5,171C 516.008,171.486 514.175,168.986 516,163.5C 516.717,162.956 517.217,162.289 517.5,161.5 Z"/></g>
<g><path style="opacity:1" fill="#d8e0e6" d="M 181.5,169.5 C 182.675,169.281 183.675,169.614 184.5,170.5C 181.885,173.321 178.885,174.654 175.5,174.5C 177.465,172.646 179.465,170.979 181.5,169.5 Z"/></g>
<g><path style="opacity:1" fill="#eae9e8" d="M 169.5,177.5 C 171.927,178.279 171.927,179.446 169.5,181C 167.99,181.85 166.49,182.683 165,183.5C 164.5,183.167 164,182.833 163.5,182.5C 165.465,180.646 167.465,178.979 169.5,177.5 Z"/></g>
<g><path style="opacity:1" fill="#26243e" d="M 154.5,188.5 C 155.239,188.369 155.906,188.536 156.5,189C 154.91,190.046 153.41,191.213 152,192.5C 151.333,191.833 151.333,191.167 152,190.5C 152.995,189.934 153.828,189.267 154.5,188.5 Z"/></g>
<g><path style="opacity:1" fill="#8fc0e4" d="M 167.5,191.5 C 178.833,191.5 190.167,191.5 201.5,191.5C 201.819,196.363 201.486,201.03 200.5,205.5C 192.16,205.666 183.827,205.5 175.5,205C 169.702,202.366 167.036,197.866 167.5,191.5 Z"/></g>
<g><path style="opacity:1" fill="#92c1e4" d="M 243.5,179.5 C 250.833,179.5 258.167,179.5 265.5,179.5C 265.833,209.841 265.5,240.174 264.5,270.5C 262.479,271.855 260.812,273.521 259.5,275.5C 248.248,276.477 236.914,276.811 225.5,276.5C 225.5,248.167 225.5,219.833 225.5,191.5C 217.833,191.5 210.167,191.5 202.5,191.5C 214.049,190.913 225.715,190.079 237.5,189C 240.647,186.536 242.647,183.37 243.5,179.5 Z"/></g>
<g><path style="opacity:1" fill="#1d1941" d="M 145.5,195.5 C 146.239,195.369 146.906,195.536 147.5,196C 146.234,197.983 144.568,198.983 142.5,199C 143.71,197.961 144.71,196.794 145.5,195.5 Z"/></g>
<g><path style="opacity:1" fill="#dcedf7" d="M 201.5,191.5 C 201.833,191.5 202.167,191.5 202.5,191.5C 210.167,191.5 217.833,191.5 225.5,191.5C 225.5,219.833 225.5,248.167 225.5,276.5C 236.914,276.811 248.248,276.477 259.5,275.5C 254.04,276.829 248.207,277.496 242,277.5C 228.397,277.28 214.73,276.947 201,276.5C 200.5,252.836 200.333,229.169 200.5,205.5C 201.486,201.03 201.819,196.363 201.5,191.5 Z"/></g>
<g><path style="opacity:1" fill="#92c1e4" d="M 491.5,381.5 C 488.833,382.167 486.167,382.833 483.5,383.5C 483.667,337.832 483.5,292.165 483,246.5C 476.472,239.64 469.972,232.807 463.5,226C 462.906,225.536 462.239,225.369 461.5,225.5C 462.993,219.87 464.993,214.537 467.5,209.5C 467.369,210.239 467.536,210.906 468,211.5C 471.981,206.684 476.148,202.018 480.5,197.5C 483.833,200.833 487.167,204.167 490.5,207.5C 491.5,265.496 491.833,323.496 491.5,381.5 Z"/></g>
<g><path style="opacity:1" fill="#0d0346" d="M 138.5,201.5 C 139.043,201.56 139.376,201.893 139.5,202.5C 134.889,207.618 134.556,207.285 138.5,201.5 Z"/></g>
<g><path style="opacity:1" fill="#332d50" d="M 130.5,208.5 C 131.376,208.369 132.043,208.702 132.5,209.5C 128.389,214.929 127.722,214.596 130.5,208.5 Z"/></g>
<g><path style="opacity:1" fill="#180d4f" d="M 124.5,215.5 C 125.043,215.56 125.376,215.893 125.5,216.5C 120.889,221.618 120.556,221.285 124.5,215.5 Z"/></g>
<g><path style="opacity:1" fill="#d9eaf9" d="M 533.5,397.5 C 532.167,397.5 531.5,396.833 531.5,395.5C 529.92,392.912 527.92,390.578 525.5,388.5C 515.778,382.036 505.112,379.036 493.5,379.5C 496.403,377.896 499.737,376.896 503.5,376.5C 502.311,375.571 500.978,375.238 499.5,375.5C 499.611,362.16 499.945,348.827 500.5,335.5C 501.873,335.657 503.207,335.49 504.5,335C 501.305,334.819 498.305,334.319 495.5,333.5C 494.957,333.44 494.624,333.107 494.5,332.5C 496.045,331.548 497.712,331.215 499.5,331.5C 497.553,295.594 496.886,259.594 497.5,223.5C 501.5,222.167 505.5,220.833 509.5,219.5C 509.5,215.5 509.5,211.5 509.5,207.5C 515.391,205.565 521.391,205.232 527.5,206.5C 529.812,211.779 532.478,216.779 535.5,221.5C 536.833,221.5 538.167,221.5 539.5,221.5C 539.5,225.5 541.5,227.5 545.5,227.5C 548.143,250.14 548.143,272.807 545.5,295.5C 546.167,300.833 546.833,306.167 547.5,311.5C 544.858,330.188 545.025,348.854 548,367.5C 549.301,369.365 549.635,371.365 549,373.5C 548.417,371.998 547.584,370.665 546.5,369.5C 544.027,376.62 543.027,383.953 543.5,391.5C 540.753,391.187 538.086,391.52 535.5,392.5C 533.995,393.842 533.328,395.508 533.5,397.5 Z"/></g>
<g><path style="opacity:1" fill="#3d95c8" d="M 161.5,221.5 C 162.534,222.687 163.867,223.52 165.5,224C 164.167,225 164.167,226 165.5,227C 162.989,227.582 160.989,226.749 159.5,224.5C 160.612,223.735 161.279,222.735 161.5,221.5 Z"/></g>
<g><path style="opacity:1" fill="#07026e" d="M 327.5,223.5 C 329.924,223.192 332.257,223.526 334.5,224.5C 333.333,224.833 332.167,225.167 331,225.5C 329.319,225.392 328.152,224.725 327.5,223.5 Z"/></g>
<g><path style="opacity:1" fill="#181639" d="M 117.5,223.5 C 118.043,223.56 118.376,223.893 118.5,224.5C 113.889,229.618 113.556,229.285 117.5,223.5 Z"/></g>
<g><path style="opacity:1" fill="#fcb04b" d="M 371.5,217.5 C 373.048,217.821 373.715,218.821 373.5,220.5C 374.833,220.5 376.167,220.5 377.5,220.5C 377.785,222.288 377.452,223.955 376.5,225.5C 375.191,223.109 374.191,223.109 373.5,225.5C 375.723,227.723 377.056,230.389 377.5,233.5C 377.284,235.384 376.617,237.051 375.5,238.5C 373.668,239.248 372.001,240.248 370.5,241.5C 368.5,240.167 366.5,238.833 364.5,237.5C 363.571,236.311 363.238,234.978 363.5,233.5C 366.167,234.167 368.833,234.833 371.5,235.5C 371.5,234.167 371.5,232.833 371.5,231.5C 367.732,231.076 365.065,229.076 363.5,225.5C 365.597,222.069 368.264,219.402 371.5,217.5 Z"/></g>
<g><path style="opacity:1" fill="#fcfcfc" d="M 461.5,225.5 C 462.239,225.369 462.906,225.536 463.5,226C 469.972,232.807 476.472,239.64 483,246.5C 483.5,292.165 483.667,337.832 483.5,383.5C 481.919,385.303 479.919,386.636 477.5,387.5C 477.5,347.167 477.5,306.833 477.5,266.5C 458.5,266.5 439.5,266.5 420.5,266.5C 420.168,323.669 420.501,380.669 421.5,437.5C 420.257,439.753 418.59,441.753 416.5,443.5C 411.84,456.892 413.174,469.558 420.5,481.5C 420.5,484.167 420.5,486.833 420.5,489.5C 414.167,489.5 407.833,489.5 401.5,489.5C 401.5,432.833 401.5,376.167 401.5,319.5C 401.5,318.833 401.5,318.167 401.5,317.5C 401.5,317.167 401.5,316.833 401.5,316.5C 383.007,315.503 364.341,315.17 345.5,315.5C 345.5,373.167 345.5,430.833 345.5,488.5C 339.5,488.5 333.5,488.5 327.5,488.5C 327.832,442.997 327.499,397.664 326.5,352.5C 308.341,351.503 290.008,351.17 271.5,351.5C 271.5,397.5 271.5,443.5 271.5,489.5C 264.5,489.5 257.5,489.5 250.5,489.5C 250.5,456.5 250.5,423.5 250.5,390.5C 232.833,390.5 215.167,390.5 197.5,390.5C 196.502,423.329 196.168,456.329 196.5,489.5C 189.833,489.5 183.167,489.5 176.5,489.5C 176.5,466.833 176.5,444.167 176.5,421.5C 175.5,421.5 174.5,421.5 173.5,421.5C 156.833,421.5 140.167,421.5 123.5,421.5C 122.503,443.66 122.169,465.994 122.5,488.5C 117.5,488.5 112.5,488.5 107.5,488.5C 107.333,460.165 107.5,431.831 108,403.5C 135.41,382.212 162.91,361.046 190.5,340C 192.044,338.813 193.711,338.48 195.5,339C 204.843,345.67 214.176,352.337 223.5,359C 225.167,359.667 226.833,359.667 228.5,359C 266.481,329.024 304.481,299.024 342.5,269C 351.144,275.467 359.144,282.967 366.5,291.5C 392.398,271.394 418.065,251.06 443.5,230.5C 445.828,229.176 448.161,227.843 450.5,226.5C 453.223,228.934 455.723,231.601 458,234.5C 458.725,231.21 459.892,228.21 461.5,225.5 Z"/></g>
<g><path style="opacity:1" fill="#11185f" d="M 136.5,247.5 C 142.095,261.958 139.095,274.458 127.5,285C 123.67,286.998 119.67,288.498 115.5,289.5C 112.5,289.5 109.5,289.5 106.5,289.5C 106.5,318.5 106.5,347.5 106.5,376.5C 106.5,414.167 106.5,451.833 106.5,489.5C 106.167,489.5 105.833,489.5 105.5,489.5C 105.833,422.83 105.5,356.163 104.5,289.5C 94.5849,286.246 87.5849,279.912 83.5,270.5C 80.072,245.772 90.7386,233.272 115.5,233C 119.729,234.115 123.729,235.781 127.5,238C 130.367,241.365 133.367,244.531 136.5,247.5 Z"/></g>
<g><path style="opacity:1" fill="#90bfe3" d="M 107.5,347.5 C 107.5,328.5 107.5,309.5 107.5,290.5C 110.385,290.806 113.052,290.473 115.5,289.5C 119.67,288.498 123.67,286.998 127.5,285C 139.095,274.458 142.095,261.958 136.5,247.5C 142.5,247.5 148.5,247.5 154.5,247.5C 154.5,243.167 154.5,238.833 154.5,234.5C 158.833,234.5 163.167,234.5 167.5,234.5C 167.667,253.17 167.5,271.836 167,290.5C 164.73,291.727 162.897,293.394 161.5,295.5C 160.667,277.176 160.167,258.842 160,240.5C 159.667,259.5 159.333,278.5 159,297.5C 141.991,314.342 124.825,331.009 107.5,347.5 Z"/></g>
<g><path style="opacity:1" fill="#c2c5cf" d="M 103.5,237.5 C 118.634,235.644 129.134,241.644 135,255.5C 135.174,278.326 124.007,287.826 101.5,284C 87.9111,276.326 83.7445,265.159 89,250.5C 92.7467,244.889 97.5801,240.556 103.5,237.5 Z"/></g>
<g><path style="opacity:1" fill="#0b186a" d="M 103.5,239.5 C 122.696,237.874 132.529,246.541 133,265.5C 129.825,276.836 122.325,282.836 110.5,283.5C 96.3895,282.388 89.0562,274.722 88.5,260.5C 89.3352,250.487 94.3352,243.487 103.5,239.5 Z"/></g>
<g><path style="opacity:1" fill="#9bc4e5" d="M 175.5,246.5 C 177.167,246.5 178.833,246.5 180.5,246.5C 180.5,257.5 180.5,268.5 180.5,279.5C 179.07,279.421 177.736,279.754 176.5,280.5C 175.501,269.186 175.168,257.853 175.5,246.5 Z"/></g>
<g><path style="opacity:1" fill="#1d206f" d="M 451.5,255.5 C 452.833,255.5 454.167,255.5 455.5,255.5C 455.5,257.167 455.5,258.833 455.5,260.5C 454.167,260.5 452.833,260.5 451.5,260.5C 451.5,258.833 451.5,257.167 451.5,255.5 Z"/></g>
<g><path style="opacity:1" fill="#615e6e" d="M 442.5,255.5 C 443.649,255.791 444.316,256.624 444.5,258C 444.167,258.833 443.833,259.667 443.5,260.5C 442.548,258.955 442.215,257.288 442.5,255.5 Z"/></g>
<g><path style="opacity:1" fill="#536e9a" d="M 477.5,387.5 C 477.672,388.492 477.338,389.158 476.5,389.5C 476.5,348.833 476.5,308.167 476.5,267.5C 474.167,267.5 471.833,267.5 469.5,267.5C 453.5,267.5 437.5,267.5 421.5,267.5C 421.5,286.5 421.5,305.5 421.5,324.5C 421.5,361.5 421.5,398.5 421.5,435.5C 421.5,436.167 421.5,436.833 421.5,437.5C 420.501,380.669 420.168,323.669 420.5,266.5C 439.5,266.5 458.5,266.5 477.5,266.5C 477.5,306.833 477.5,347.167 477.5,387.5 Z"/></g>
<g><path style="opacity:1" fill="#e9e9ec" d="M 108.5,247.5 C 109.5,247.5 110.5,247.5 111.5,247.5C 111.5,248.5 111.5,249.5 111.5,250.5C 114.798,250.016 117.464,251.016 119.5,253.5C 117.55,255.753 115.216,256.086 112.5,254.5C 111.534,256.396 111.201,258.396 111.5,260.5C 120.691,261.478 122.691,265.644 117.5,273C 115.655,274.128 113.655,274.628 111.5,274.5C 111.5,275.5 111.5,276.5 111.5,277.5C 110.5,277.5 109.5,277.5 108.5,277.5C 108.5,276.5 108.5,275.5 108.5,274.5C 105.207,274.685 102.54,273.518 100.5,271C 102.566,267.927 105.066,267.761 108,270.5C 108.495,268.527 108.662,266.527 108.5,264.5C 99.8326,263.336 97.8326,259.169 102.5,252C 104.345,250.872 106.345,250.372 108.5,250.5C 108.5,249.5 108.5,248.5 108.5,247.5 Z"/></g>
<g><path style="opacity:1" fill="#151065" d="M 111.5,265.5 C 112.5,265.5 113.5,265.5 114.5,265.5C 114.5,266.833 114.5,268.167 114.5,269.5C 113.5,269.5 112.5,269.5 111.5,269.5C 111.5,268.167 111.5,266.833 111.5,265.5 Z"/></g>
<g><path style="opacity:1" fill="#271e61" d="M 106.5,254.5 C 108.256,255.552 108.923,257.219 108.5,259.5C 107.5,259.5 106.5,259.5 105.5,259.5C 105.366,257.708 105.699,256.042 106.5,254.5 Z"/></g>
<g><path style="opacity:1" fill="#1e87ca" d="M 469.5,267.5 C 469.5,278.833 469.5,290.167 469.5,301.5C 453.566,309.132 437.566,316.799 421.5,324.5C 421.5,305.5 421.5,286.5 421.5,267.5C 437.5,267.5 453.5,267.5 469.5,267.5 Z"/></g>
<g><path style="opacity:1" fill="#dcecf6" d="M 83.5,270.5 C 87.5849,279.912 94.5849,286.246 104.5,289.5C 105.5,356.163 105.833,422.83 105.5,489.5C 100.833,489.5 96.1667,489.5 91.5,489.5C 95.6344,488.515 99.9677,488.182 104.5,488.5C 104.5,460.167 104.5,431.833 104.5,403.5C 96.9479,402.791 89.9479,400.458 83.5,396.5C 72.6056,389.047 64.2722,379.38 58.5,367.5C 50.1159,347.922 49.2825,327.922 56,307.5C 61.3219,295.851 68.8219,285.851 78.5,277.5C 79.8498,276.05 81.5165,275.383 83.5,275.5C 83.5,273.833 83.5,272.167 83.5,270.5 Z"/></g>
<g><path style="opacity:1" fill="#768db8" d="M 115.5,289.5 C 113.052,290.473 110.385,290.806 107.5,290.5C 107.5,309.5 107.5,328.5 107.5,347.5C 107.5,357.167 107.5,366.833 107.5,376.5C 107.167,376.5 106.833,376.5 106.5,376.5C 106.5,347.5 106.5,318.5 106.5,289.5C 109.5,289.5 112.5,289.5 115.5,289.5 Z"/></g>
<g><path style="opacity:1" fill="#9fc8e6" d="M 557.5,287.5 C 559.262,291.424 562.262,294.257 566.5,296C 565.051,297.117 563.384,297.784 561.5,298C 560.134,299.6 559.134,301.433 558.5,303.5C 557.833,299.5 555.5,297.167 551.5,296.5C 553.179,295.218 555.013,294.218 557,293.5C 557.495,291.527 557.662,289.527 557.5,287.5 Z"/></g>
<g><path style="opacity:1" fill="#fab14e" d="M 231.5,311.5 C 230.934,313.078 229.934,314.412 228.5,315.5C 226.5,314.167 224.5,312.833 222.5,311.5C 221.571,310.311 221.238,308.978 221.5,307.5C 222.833,307.5 224.167,307.5 225.5,307.5C 225.238,308.978 225.571,310.311 226.5,311.5C 227.48,308.914 227.813,306.247 227.5,303.5C 226.167,303.5 224.833,303.5 223.5,303.5C 223.5,300.833 223.5,298.167 223.5,295.5C 224.833,295.5 226.167,295.5 227.5,295.5C 228.167,290.167 228.833,290.167 229.5,295.5C 230.833,295.5 232.167,295.5 233.5,295.5C 233.714,299.257 232.714,299.924 230.5,297.5C 229.534,299.396 229.201,301.396 229.5,303.5C 230.833,303.5 232.167,303.5 233.5,303.5C 234.036,306.698 233.369,309.365 231.5,311.5 Z"/></g>
<g><path style="opacity:1" fill="#dee5ed" d="M 225.5,297.5 C 226.586,297.62 227.253,298.287 227.5,299.5C 227.167,300.167 226.833,300.833 226.5,301.5C 225.571,300.311 225.238,298.978 225.5,297.5 Z"/></g>
<g><path style="opacity:1" fill="#0c0175" d="M 373.5,303.5 C 375.924,303.192 378.257,303.526 380.5,304.5C 379.333,304.833 378.167,305.167 377,305.5C 375.319,305.392 374.152,304.725 373.5,303.5 Z"/></g>
<g><path style="opacity:1" fill="#d4eaee" d="M 231.5,311.5 C 230.307,311.03 229.64,310.03 229.5,308.5C 229.833,307.5 230.167,306.5 230.5,305.5C 231.466,307.396 231.799,309.396 231.5,311.5 Z"/></g>
<g><path style="opacity:1" fill="#010a2a" d="M 401.5,316.5 C 401.5,316.833 401.5,317.167 401.5,317.5C 383.136,316.847 365.136,317.513 347.5,319.5C 347.167,319.5 346.833,319.5 346.5,319.5C 346.5,318.5 346.5,317.5 346.5,316.5C 364.833,316.5 383.167,316.5 401.5,316.5 Z"/></g>
<g><path style="opacity:1" fill="#1c2d78" d="M 401.5,317.5 C 401.5,318.167 401.5,318.833 401.5,319.5C 400.167,319.5 398.833,319.5 397.5,319.5C 397.826,327.684 397.492,335.684 396.5,343.5C 396.5,335.5 396.5,327.5 396.5,319.5C 380.167,319.5 363.833,319.5 347.5,319.5C 365.136,317.513 383.136,316.847 401.5,317.5 Z"/></g>
<g><path style="opacity:1" fill="#1f88c9" d="M 346.5,319.5 C 346.833,319.5 347.167,319.5 347.5,319.5C 363.833,319.5 380.167,319.5 396.5,319.5C 396.5,327.5 396.5,335.5 396.5,343.5C 379.741,351.309 363.074,359.309 346.5,367.5C 346.5,351.5 346.5,335.5 346.5,319.5 Z"/></g>
<g><path style="opacity:1" fill="#fcaf47" d="M 301.5,315.5 C 303.176,316.183 303.843,317.517 303.5,319.5C 305.5,319.5 307.5,319.5 309.5,319.5C 309.5,320.833 309.5,322.167 309.5,323.5C 306.753,323.187 304.086,323.52 301.5,324.5C 303.657,326.412 305.991,328.079 308.5,329.5C 309.48,332.086 309.813,334.753 309.5,337.5C 306.465,337.521 304.132,338.854 302.5,341.5C 300.477,339.827 298.144,339.16 295.5,339.5C 295.5,338.167 295.5,336.833 295.5,335.5C 298.144,335.84 300.477,335.173 302.5,333.5C 304.714,335.924 305.714,335.257 305.5,331.5C 302.159,330.998 299.159,329.664 296.5,327.5C 294.68,322.61 296.347,319.944 301.5,319.5C 301.5,318.167 301.5,316.833 301.5,315.5 Z"/></g>
<g><path style="opacity:1" fill="#2588ca" d="M 467.5,209.5 C 464.993,214.537 462.993,219.87 461.5,225.5C 459.892,228.21 458.725,231.21 458,234.5C 455.723,231.601 453.223,228.934 450.5,226.5C 448.161,227.843 445.828,229.176 443.5,230.5C 418.065,251.06 392.398,271.394 366.5,291.5C 359.144,282.967 351.144,275.467 342.5,269C 304.481,299.024 266.481,329.024 228.5,359C 226.833,359.667 225.167,359.667 223.5,359C 214.176,352.337 204.843,345.67 195.5,339C 193.711,338.48 192.044,338.813 190.5,340C 162.91,361.046 135.41,382.212 108,403.5C 107.5,431.831 107.333,460.165 107.5,488.5C 107.5,488.833 107.5,489.167 107.5,489.5C 107.167,489.5 106.833,489.5 106.5,489.5C 106.5,451.833 106.5,414.167 106.5,376.5C 106.833,376.5 107.167,376.5 107.5,376.5C 135.137,355.676 162.804,334.842 190.5,314C 192.259,313.202 193.926,313.369 195.5,314.5C 204.977,320.814 214.311,327.314 223.5,334C 224.759,334.982 226.092,335.315 227.5,335C 266.356,303.976 305.356,273.143 344.5,242.5C 352.319,249.819 359.986,257.319 367.5,265C 368.167,265.667 368.833,265.667 369.5,265C 391.977,247.691 414.31,230.191 436.5,212.5C 437.583,211.635 437.749,210.635 437,209.5C 435.624,208.295 434.458,206.962 433.5,205.5C 432.859,204.518 432.193,203.518 431.5,202.5C 444.738,197.857 458.071,193.524 471.5,189.5C 472.167,189.833 472.833,190.167 473.5,190.5C 470.724,196.607 468.724,202.941 467.5,209.5 Z"/></g>
<g><path style="opacity:1" fill="#818abc" d="M 506.5,322.5 C 507.477,325.287 507.81,328.287 507.5,331.5C 511.226,331.177 514.893,331.511 518.5,332.5C 518.376,333.107 518.043,333.44 517.5,333.5C 514.038,332.518 510.371,332.185 506.5,332.5C 506.5,329.167 506.5,325.833 506.5,322.5 Z"/></g>
<g><path style="opacity:1" fill="#030e48" d="M 506.5,322.5 C 506.5,325.833 506.5,329.167 506.5,332.5C 510.371,332.185 514.038,332.518 517.5,333.5C 513.833,333.5 510.167,333.5 506.5,333.5C 506.976,336.927 506.976,340.26 506.5,343.5C 505.513,340.232 505.18,336.898 505.5,333.5C 502.167,333.5 498.833,333.5 495.5,333.5C 498.625,332.521 501.958,332.187 505.5,332.5C 505.187,328.958 505.521,325.625 506.5,322.5 Z"/></g>
<g><path style="opacity:1" fill="#03176c" d="M 401.5,319.5 C 401.5,376.167 401.5,432.833 401.5,489.5C 407.833,489.5 414.167,489.5 420.5,489.5C 420.5,486.833 420.5,484.167 420.5,481.5C 422.884,484.542 425.884,486.876 429.5,488.5C 444.326,490.093 458.993,489.759 473.5,487.5C 474.167,488.167 474.833,488.833 475.5,489.5C 433.18,491.495 390.513,492.161 347.5,491.5C 348.82,473.885 349.487,456.052 349.5,438C 349.167,420.5 348.833,403 348.5,385.5C 347.833,420.331 347.167,454.998 346.5,489.5C 346.5,448.833 346.5,408.167 346.5,367.5C 363.074,359.309 379.741,351.309 396.5,343.5C 397.492,335.684 397.826,327.684 397.5,319.5C 398.833,319.5 400.167,319.5 401.5,319.5 Z"/></g>
<g><path style="opacity:1" fill="#5390c5" d="M 79.5,352.5 C 85.6564,352.487 88.4898,355.487 88,361.5C 85.9754,366.145 82.4754,367.645 77.5,366C 73.1209,360.696 73.7876,356.196 79.5,352.5 Z"/></g>
<g><path style="opacity:1" fill="#05176a" d="M 469.5,267.5 C 471.833,267.5 474.167,267.5 476.5,267.5C 476.5,308.167 476.5,348.833 476.5,389.5C 474.467,391.868 472.133,393.868 469.5,395.5C 469.5,387.833 469.5,380.167 469.5,372.5C 469.5,372.167 469.5,371.833 469.5,371.5C 469.5,348.167 469.5,324.833 469.5,301.5C 469.5,290.167 469.5,278.833 469.5,267.5 Z"/></g>
<g><path style="opacity:1" fill="#dff1f7" d="M 79.5,354.5 C 85.1573,354.324 87.324,356.991 86,362.5C 83,366.5 80,366.5 77,362.5C 76.0228,359.183 76.8562,356.516 79.5,354.5 Z"/></g>
<g><path style="opacity:1" fill="#2088ca" d="M 273.5,352.5 C 273.5,352.833 273.5,353.167 273.5,353.5C 289.132,355.485 305.132,356.151 321.5,355.5C 321.831,364.192 321.498,372.859 320.5,381.5C 304.799,389.683 288.799,397.349 272.5,404.5C 272.17,386.992 272.503,369.659 273.5,352.5 Z"/></g>
<g><path style="opacity:1" fill="#f2f5f6" d="M 469.5,371.5 C 469.5,371.833 469.5,372.167 469.5,372.5C 462.251,373.915 457.751,378.248 456,385.5C 453.526,379.026 449.026,374.526 442.5,372C 449.471,369.529 453.804,364.696 455.5,357.5C 457.844,364.511 462.511,369.178 469.5,371.5 Z"/></g>
<g><path style="opacity:1" fill="#f7b862" d="M 181.5,367.5 C 183.035,368.844 184.368,370.511 185.5,372.5C 184.675,373.386 183.675,373.719 182.5,373.5C 182.167,378.833 181.833,378.833 181.5,373.5C 176.167,372.833 176.167,372.167 181.5,371.5C 181.5,370.167 181.5,368.833 181.5,367.5 Z"/></g>
<g><path style="opacity:1" fill="#194d8d" d="M 469.5,301.5 C 469.5,324.833 469.5,348.167 469.5,371.5C 462.511,369.178 457.844,364.511 455.5,357.5C 453.804,364.696 449.471,369.529 442.5,372C 449.026,374.526 453.526,379.026 456,385.5C 457.751,378.248 462.251,373.915 469.5,372.5C 469.5,380.167 469.5,387.833 469.5,395.5C 467.478,399.544 465.478,403.544 463.5,407.5C 462.761,407.369 462.094,407.536 461.5,408C 456.532,413.122 451.866,418.289 447.5,423.5C 443.371,423.874 439.371,424.874 435.5,426.5C 430.777,429.521 426.11,432.521 421.5,435.5C 421.5,398.5 421.5,361.5 421.5,324.5C 437.566,316.799 453.566,309.132 469.5,301.5 Z"/></g>
<g><path style="opacity:1" fill="#0c1338" d="M 273.5,353.5 C 273.5,353.167 273.5,352.833 273.5,352.5C 291.167,352.5 308.833,352.5 326.5,352.5C 326.5,398.167 326.5,443.833 326.5,489.5C 326.167,489.5 325.833,489.5 325.5,489.5C 325.5,444.167 325.5,398.833 325.5,353.5C 308.167,353.5 290.833,353.5 273.5,353.5 Z"/></g>
<g><path style="opacity:1" fill="#060c69" d="M 226.5,379.5 C 227.5,379.5 228.5,379.5 229.5,379.5C 229.5,380.833 229.5,382.167 229.5,383.5C 228.5,383.5 227.5,383.5 226.5,383.5C 226.5,382.167 226.5,380.833 226.5,379.5 Z"/></g>
<g><path style="opacity:1" fill="#02176d" d="M 273.5,353.5 C 290.833,353.5 308.167,353.5 325.5,353.5C 325.5,398.833 325.5,444.167 325.5,489.5C 307.833,490.833 290.167,490.833 272.5,489.5C 272.5,461.167 272.5,432.833 272.5,404.5C 288.799,397.349 304.799,389.683 320.5,381.5C 321.498,372.859 321.831,364.192 321.5,355.5C 305.132,356.151 289.132,355.485 273.5,353.5 Z"/></g>
<g><path style="opacity:1" fill="#f5cc77" d="M 493.5,379.5 C 505.112,379.036 515.778,382.036 525.5,388.5C 527.92,390.578 529.92,392.912 531.5,395.5C 529.409,396.865 527.076,397.532 524.5,397.5C 515.158,387.928 503.825,384.761 490.5,388C 472.153,396.239 465.487,410.072 470.5,429.5C 468.275,427.89 465.941,426.557 463.5,425.5C 463.5,420.833 463.5,416.167 463.5,411.5C 463.5,410.167 463.5,408.833 463.5,407.5C 465.478,403.544 467.478,399.544 469.5,395.5C 472.133,393.868 474.467,391.868 476.5,389.5C 477.338,389.158 477.672,388.492 477.5,387.5C 479.919,386.636 481.919,385.303 483.5,383.5C 486.167,382.833 488.833,382.167 491.5,381.5C 492.833,381.5 493.5,380.833 493.5,379.5 Z"/></g>
<g><path style="opacity:1" fill="#0a0d31" d="M 197.5,391.5 C 197.5,391.167 197.5,390.833 197.5,390.5C 215.167,390.5 232.833,390.5 250.5,390.5C 250.5,423.5 250.5,456.5 250.5,489.5C 250.167,489.5 249.833,489.5 249.5,489.5C 249.5,456.833 249.5,424.167 249.5,391.5C 232.167,391.5 214.833,391.5 197.5,391.5 Z"/></g>
<g><path style="opacity:1" fill="#fcaf4d" d="M 147.5,399.5 C 145.692,398.082 145.025,396.082 145.5,393.5C 147.492,393.672 149.158,393.005 150.5,391.5C 152.001,392.752 153.668,393.752 155.5,394.5C 152.914,395.48 150.247,395.813 147.5,395.5C 147.5,396.833 147.5,398.167 147.5,399.5 Z"/></g>
<g><path style="opacity:1" fill="#2783c4" d="M 197.5,390.5 C 197.5,390.833 197.5,391.167 197.5,391.5C 213.466,393.485 229.799,394.152 246.5,393.5C 246.815,401.42 246.482,409.253 245.5,417C 229.429,423.958 213.429,430.792 197.5,437.5C 197.83,455.008 197.497,472.341 196.5,489.5C 196.168,456.329 196.502,423.329 197.5,390.5 Z"/></g>
<g><path style="opacity:1" fill="#c9d9f4" d="M 401.5,316.5 C 383.167,316.5 364.833,316.5 346.5,316.5C 346.5,317.5 346.5,318.5 346.5,319.5C 346.5,335.5 346.5,351.5 346.5,367.5C 346.5,408.167 346.5,448.833 346.5,489.5C 339.833,489.5 333.167,489.5 326.5,489.5C 326.5,443.833 326.5,398.167 326.5,352.5C 327.499,397.664 327.832,442.997 327.5,488.5C 333.5,488.5 339.5,488.5 345.5,488.5C 345.5,430.833 345.5,373.167 345.5,315.5C 364.341,315.17 383.007,315.503 401.5,316.5 Z"/></g>
<g><path style="opacity:1" fill="#f9b14e" d="M 147.5,399.5 C 152.325,398.988 155.658,400.988 157.5,405.5C 156.491,408.337 154.491,409.67 151.5,409.5C 151.167,414.833 150.833,414.833 150.5,409.5C 148.833,409.5 147.167,409.5 145.5,409.5C 145.286,405.743 146.286,405.076 148.5,407.5C 148.833,406.5 149.167,405.5 149.5,404.5C 149.014,402.696 148.347,401.029 147.5,399.5 Z"/></g>
<g><path style="opacity:1" fill="#d1e9fc" d="M 151.5,403.5 C 152.586,403.62 153.253,404.287 153.5,405.5C 153.167,406.167 152.833,406.833 152.5,407.5C 151.571,406.311 151.238,404.978 151.5,403.5 Z"/></g>
<g><path style="opacity:1" fill="#061a74" d="M 463.5,407.5 C 463.5,408.833 463.5,410.167 463.5,411.5C 462.849,412.091 462.182,412.757 461.5,413.5C 460.513,416.768 460.18,420.102 460.5,423.5C 459.5,423.5 458.5,423.5 457.5,423.5C 454.167,423.5 450.833,423.5 447.5,423.5C 451.866,418.289 456.532,413.122 461.5,408C 462.094,407.536 462.761,407.369 463.5,407.5 Z"/></g>
<g><path style="opacity:1" fill="#413971" d="M 463.5,411.5 C 463.5,416.167 463.5,420.833 463.5,425.5C 460.918,425.975 458.918,425.308 457.5,423.5C 458.5,423.5 459.5,423.5 460.5,423.5C 460.18,420.102 460.513,416.768 461.5,413.5C 462.182,412.757 462.849,412.091 463.5,411.5 Z"/></g>
<g><path style="opacity:1" fill="#02176e" d="M 197.5,391.5 C 214.833,391.5 232.167,391.5 249.5,391.5C 249.5,424.167 249.5,456.833 249.5,489.5C 232.881,490.471 216.214,490.805 199.5,490.5C 200.153,472.468 199.486,454.802 197.5,437.5C 213.429,430.792 229.429,423.958 245.5,417C 246.482,409.253 246.815,401.42 246.5,393.5C 229.799,394.152 213.466,393.485 197.5,391.5 Z"/></g>
<g><path style="opacity:1" fill="#1d87c9" d="M 123.5,421.5 C 140.167,421.5 156.833,421.5 173.5,421.5C 173.5,429.5 173.5,437.5 173.5,445.5C 157.822,450.673 142.155,456.006 126.5,461.5C 125.5,461.5 124.5,461.5 123.5,461.5C 123.5,448.167 123.5,434.833 123.5,421.5 Z"/></g>
<g><path style="opacity:1" fill="#4f91c1" d="M 68.5,435.5 C 74.9886,434.632 77.4886,437.299 76,443.5C 75.4111,437.538 72.7445,436.204 68,439.5C 67.6667,440.833 67.3333,442.167 67,443.5C 66.2815,440.593 66.7815,437.926 68.5,435.5 Z"/></g>
<g><path style="opacity:1" fill="#dbe4fa" d="M 326.5,352.5 C 308.833,352.5 291.167,352.5 273.5,352.5C 272.503,369.659 272.17,386.992 272.5,404.5C 272.5,432.833 272.5,461.167 272.5,489.5C 272.167,489.5 271.833,489.5 271.5,489.5C 271.5,443.5 271.5,397.5 271.5,351.5C 290.008,351.17 308.341,351.503 326.5,352.5 Z"/></g>
<g><path style="opacity:1" fill="#fba842" d="M 524.5,397.5 C 533.574,413.717 531.574,428.384 518.5,441.5C 508.685,446.45 498.351,447.783 487.5,445.5C 486.057,444.665 485.057,443.332 484.5,441.5C 484.167,442.5 483.833,443.5 483.5,444.5C 485.288,452.052 485.955,459.719 485.5,467.5C 485.309,470.983 484.643,474.316 483.5,477.5C 482.167,477.5 481.5,478.167 481.5,479.5C 479.5,480.167 478.167,481.5 477.5,483.5C 475.5,484.167 474.167,485.5 473.5,487.5C 458.993,489.759 444.326,490.093 429.5,488.5C 425.884,486.876 422.884,484.542 420.5,481.5C 413.174,469.558 411.84,456.892 416.5,443.5C 418.59,441.753 420.257,439.753 421.5,437.5C 421.5,436.833 421.5,436.167 421.5,435.5C 426.11,432.521 430.777,429.521 435.5,426.5C 439.371,424.874 443.371,423.874 447.5,423.5C 450.833,423.5 454.167,423.5 457.5,423.5C 458.918,425.308 460.918,425.975 463.5,425.5C 465.941,426.557 468.275,427.89 470.5,429.5C 465.487,410.072 472.153,396.239 490.5,388C 503.825,384.761 515.158,387.928 524.5,397.5 Z"/></g>
<g><path style="opacity:1" fill="#f6f3ee" d="M 499.5,393.5 C 501.308,394.918 501.975,396.918 501.5,399.5C 504.167,400.167 506.833,400.833 509.5,401.5C 509.5,402.833 509.5,404.167 509.5,405.5C 506.951,405.613 504.618,404.946 502.5,403.5C 501.509,407.445 501.176,411.445 501.5,415.5C 509.473,415.804 512.473,419.804 510.5,427.5C 508.281,430.574 505.281,431.907 501.5,431.5C 500.833,439.5 500.167,439.5 499.5,431.5C 496.753,431.813 494.086,431.48 491.5,430.5C 489.995,429.158 489.328,427.492 489.5,425.5C 492.734,426.576 496.068,427.243 499.5,427.5C 499.5,424.167 499.5,420.833 499.5,417.5C 491.434,417.117 488.434,413.117 490.5,405.5C 492.132,402.854 494.465,401.521 497.5,401.5C 497.365,398.583 498.032,395.916 499.5,393.5 Z"/></g>
<g><path style="opacity:1" fill="#feae38" d="M 501.5,419.5 C 504.708,421.074 506.042,423.741 505.5,427.5C 504.167,427.5 502.833,427.5 501.5,427.5C 501.5,424.833 501.5,422.167 501.5,419.5 Z"/></g>
<g><path style="opacity:1" fill="#fabf6a" d="M 495.5,405.5 C 496.833,405.5 498.167,405.5 499.5,405.5C 499.813,408.247 499.48,410.914 498.5,413.5C 496.124,411.373 495.124,408.707 495.5,405.5 Z"/></g>
<g><path style="opacity:1" fill="#03166b" d="M 173.5,421.5 C 174.5,421.5 175.5,421.5 176.5,421.5C 176.5,444.167 176.5,466.833 176.5,489.5C 159.5,489.5 142.5,489.5 125.5,489.5C 125.22,480.114 125.553,470.78 126.5,461.5C 142.155,456.006 157.822,450.673 173.5,445.5C 173.5,437.5 173.5,429.5 173.5,421.5 Z"/></g>
<g><path style="opacity:1" fill="#f6b147" d="M 531.5,395.5 C 531.5,396.833 532.167,397.5 533.5,397.5C 539.646,412.037 538.646,426.037 530.5,439.5C 527.067,441.826 524.067,444.493 521.5,447.5C 518.371,447.974 515.705,449.308 513.5,451.5C 512.167,451.5 510.833,451.5 509.5,451.5C 502.833,451.5 496.167,451.5 489.5,451.5C 488.833,450.833 488.167,450.167 487.5,449.5C 487.5,448.167 487.5,446.833 487.5,445.5C 498.351,447.783 508.685,446.45 518.5,441.5C 531.574,428.384 533.574,413.717 524.5,397.5C 527.076,397.532 529.409,396.865 531.5,395.5 Z"/></g>
<g><path style="opacity:1" fill="#a78c84" d="M 521.5,447.5 C 519.925,449.114 519.259,451.114 519.5,453.5C 517.718,452.28 515.718,451.614 513.5,451.5C 515.705,449.308 518.371,447.974 521.5,447.5 Z"/></g>
<g><path style="opacity:1" fill="#8d4c3b" d="M 489.5,451.5 C 496.167,451.5 502.833,451.5 509.5,451.5C 509.5,452.833 508.833,453.5 507.5,453.5C 501.283,453.028 495.283,453.695 489.5,455.5C 489.5,454.167 489.5,452.833 489.5,451.5 Z"/></g>
<g><path style="opacity:1" fill="#c6331c" d="M 509.5,451.5 C 510.833,451.5 512.167,451.5 513.5,451.5C 515.718,451.614 517.718,452.28 519.5,453.5C 518.79,455.746 518.29,458.08 518,460.5C 515.457,458.646 512.624,457.479 509.5,457C 508.177,456.184 507.511,455.017 507.5,453.5C 508.833,453.5 509.5,452.833 509.5,451.5 Z"/></g>
<g><path style="opacity:1" fill="#4d2344" d="M 487.5,449.5 C 488.167,450.167 488.833,450.833 489.5,451.5C 489.5,452.833 489.5,454.167 489.5,455.5C 489.5,456.167 489.5,456.833 489.5,457.5C 490.036,460.698 489.369,463.365 487.5,465.5C 487.243,459.957 487.243,454.624 487.5,449.5 Z"/></g>
<g><path style="opacity:1" fill="#cc9664" d="M 487.5,445.5 C 487.5,446.833 487.5,448.167 487.5,449.5C 487.243,454.624 487.243,459.957 487.5,465.5C 486.833,466.167 486.167,466.833 485.5,467.5C 485.955,459.719 485.288,452.052 483.5,444.5C 483.833,443.5 484.167,442.5 484.5,441.5C 485.057,443.332 486.057,444.665 487.5,445.5 Z"/></g>
<g><path style="opacity:1" fill="#f8a742" d="M 507.5,453.5 C 507.511,455.017 508.177,456.184 509.5,457C 512.624,457.479 515.457,458.646 518,460.5C 518.29,458.08 518.79,455.746 519.5,453.5C 522.243,455.239 524.243,457.573 525.5,460.5C 525.177,464.226 525.511,467.893 526.5,471.5C 527.265,472.612 528.265,473.279 529.5,473.5C 527.5,474.833 525.5,476.167 523.5,477.5C 520,480.753 516,483.253 511.5,485C 503.274,486.593 495.274,488.093 487.5,489.5C 484.167,489.5 480.833,489.5 477.5,489.5C 476.833,489.5 476.167,489.5 475.5,489.5C 475.427,487.973 476.094,486.973 477.5,486.5C 479.966,487.634 482.633,487.801 485.5,487C 483.593,485.878 481.593,485.045 479.5,484.5C 479.5,484.167 479.5,483.833 479.5,483.5C 481.5,482.833 482.833,481.5 483.5,479.5C 486.47,480.549 489.47,481.716 492.5,483C 495.482,483.498 498.482,483.665 501.5,483.5C 501.215,479.962 502.882,478.129 506.5,478C 509.816,473.38 508.816,470.546 503.5,469.5C 503.5,468.5 503.5,467.5 503.5,466.5C 506.321,466.684 507.988,465.351 508.5,462.5C 508.376,461.893 508.043,461.56 507.5,461.5C 506.817,459.824 505.483,459.157 503.5,459.5C 503.5,458.5 503.5,457.5 503.5,456.5C 498.819,456.669 494.152,457.002 489.5,457.5C 489.5,456.833 489.5,456.167 489.5,455.5C 495.283,453.695 501.283,453.028 507.5,453.5 Z"/></g>
<g><path style="opacity:1" fill="#e3721b" d="M 503.5,459.5 C 496.797,458.53 494.464,461.197 496.5,467.5C 498.441,465.684 499.108,463.684 498.5,461.5C 501.383,461.128 504.383,461.128 507.5,461.5C 508.043,461.56 508.376,461.893 508.5,462.5C 507.988,465.351 506.321,466.684 503.5,466.5C 503.5,467.5 503.5,468.5 503.5,469.5C 508.816,470.546 509.816,473.38 506.5,478C 502.882,478.129 501.215,479.962 501.5,483.5C 498.482,483.665 495.482,483.498 492.5,483C 489.47,481.716 486.47,480.549 483.5,479.5C 483.5,478.833 483.5,478.167 483.5,477.5C 484.943,476.665 485.943,475.332 486.5,473.5C 487.48,470.914 487.813,468.247 487.5,465.5C 489.369,463.365 490.036,460.698 489.5,457.5C 494.152,457.002 498.819,456.669 503.5,456.5C 503.5,457.5 503.5,458.5 503.5,459.5 Z"/></g>
<g><path style="opacity:1" fill="#b14023" d="M 503.5,459.5 C 505.483,459.157 506.817,459.824 507.5,461.5C 504.383,461.128 501.383,461.128 498.5,461.5C 499.108,463.684 498.441,465.684 496.5,467.5C 494.464,461.197 496.797,458.53 503.5,459.5 Z"/></g>
<g><path style="opacity:1" fill="#f5f3ec" d="M 447.5,439.5 C 448.833,439.5 450.167,439.5 451.5,439.5C 451.5,441.5 451.5,443.5 451.5,445.5C 453.5,445.5 455.5,445.5 457.5,445.5C 457.5,447.5 457.5,449.5 457.5,451.5C 454.266,450.424 450.932,449.757 447.5,449.5C 447.498,451.831 448.331,453.831 450,455.5C 453.305,456.99 456.305,458.99 459,461.5C 460.505,469.164 457.338,473.164 449.5,473.5C 448.833,478.833 448.167,478.833 447.5,473.5C 442.555,474.324 439.888,472.324 439.5,467.5C 442.144,467.16 444.477,467.827 446.5,469.5C 447.487,466.232 447.82,462.898 447.5,459.5C 440.601,458.306 438.601,454.639 441.5,448.5C 442.988,446.423 444.988,445.423 447.5,445.5C 447.5,443.5 447.5,441.5 447.5,439.5 Z"/></g>
<g><path style="opacity:1" fill="#fdb14a" d="M 449.5,461.5 C 452.708,463.074 454.042,465.741 453.5,469.5C 452.167,469.5 450.833,469.5 449.5,469.5C 449.5,466.833 449.5,464.167 449.5,461.5 Z"/></g>
<g><path style="opacity:1" fill="#0f137b" d="M 525.5,460.5 C 527.017,460.511 528.184,461.177 529,462.5C 529.499,466.152 529.665,469.818 529.5,473.5C 528.265,473.279 527.265,472.612 526.5,471.5C 525.511,467.893 525.177,464.226 525.5,460.5 Z"/></g>
<g><path style="opacity:1" fill="#c1ccce" d="M 123.5,421.5 C 123.5,434.833 123.5,448.167 123.5,461.5C 123.5,470.833 123.5,480.167 123.5,489.5C 118.167,489.5 112.833,489.5 107.5,489.5C 107.5,489.167 107.5,488.833 107.5,488.5C 112.5,488.5 117.5,488.5 122.5,488.5C 122.169,465.994 122.503,443.66 123.5,421.5 Z"/></g>
<g><path style="opacity:1" fill="#3c2a82" d="M 487.5,465.5 C 487.813,468.247 487.48,470.914 486.5,473.5C 485.943,475.332 484.943,476.665 483.5,477.5C 484.643,474.316 485.309,470.983 485.5,467.5C 486.167,466.833 486.833,466.167 487.5,465.5 Z"/></g>
<g><path style="opacity:1" fill="#201c9e" d="M 483.5,477.5 C 483.5,478.167 483.5,478.833 483.5,479.5C 482.833,479.5 482.167,479.5 481.5,479.5C 481.5,478.167 482.167,477.5 483.5,477.5 Z"/></g>
<g><path style="opacity:1" fill="#836163" d="M 481.5,479.5 C 482.167,479.5 482.833,479.5 483.5,479.5C 482.833,481.5 481.5,482.833 479.5,483.5C 478.833,483.5 478.167,483.5 477.5,483.5C 478.167,481.5 479.5,480.167 481.5,479.5 Z"/></g>
<g><path style="opacity:1" fill="#2d118d" d="M 477.5,483.5 C 478.167,483.5 478.833,483.5 479.5,483.5C 479.5,483.833 479.5,484.167 479.5,484.5C 479.158,485.338 478.492,485.672 477.5,485.5C 477.5,484.833 477.5,484.167 477.5,483.5 Z"/></g>
<g><path style="opacity:1" fill="#6a5a62" d="M 477.5,483.5 C 477.5,484.167 477.5,484.833 477.5,485.5C 477.5,485.833 477.5,486.167 477.5,486.5C 476.094,486.973 475.427,487.973 475.5,489.5C 474.833,488.833 474.167,488.167 473.5,487.5C 474.167,485.5 475.5,484.167 477.5,483.5 Z"/></g>
<g><path style="opacity:1" fill="#9e341b" d="M 479.5,484.5 C 481.593,485.045 483.593,485.878 485.5,487C 482.633,487.801 479.966,487.634 477.5,486.5C 477.5,486.167 477.5,485.833 477.5,485.5C 478.492,485.672 479.158,485.338 479.5,484.5 Z"/></g>
<g><path style="opacity:1" fill="#e8620b" d="M 523.5,477.5 C 523.5,481.5 523.5,485.5 523.5,489.5C 511.5,489.5 499.5,489.5 487.5,489.5C 495.274,488.093 503.274,486.593 511.5,485C 516,483.253 520,480.753 523.5,477.5 Z"/></g>
<g><path style="opacity:1" fill="#071071" d="M 347.5,491.5 C 262.332,491.167 177.332,491.501 92.5,492.5C 92.1667,492.5 91.8333,492.5 91.5,492.5C 91.5,491.5 91.5,490.5 91.5,489.5C 96.1667,489.5 100.833,489.5 105.5,489.5C 105.833,489.5 106.167,489.5 106.5,489.5C 106.833,489.5 107.167,489.5 107.5,489.5C 112.833,489.5 118.167,489.5 123.5,489.5C 123.5,480.167 123.5,470.833 123.5,461.5C 124.5,461.5 125.5,461.5 126.5,461.5C 125.553,470.78 125.22,480.114 125.5,489.5C 142.5,489.5 159.5,489.5 176.5,489.5C 183.167,489.5 189.833,489.5 196.5,489.5C 197.497,472.341 197.83,455.008 197.5,437.5C 199.486,454.802 200.153,472.468 199.5,490.5C 216.214,490.805 232.881,490.471 249.5,489.5C 249.833,489.5 250.167,489.5 250.5,489.5C 257.5,489.5 264.5,489.5 271.5,489.5C 271.833,489.5 272.167,489.5 272.5,489.5C 290.167,490.833 307.833,490.833 325.5,489.5C 325.833,489.5 326.167,489.5 326.5,489.5C 333.167,489.5 339.833,489.5 346.5,489.5C 347.167,454.998 347.833,420.331 348.5,385.5C 348.833,403 349.167,420.5 349.5,438C 349.487,456.052 348.82,473.885 347.5,491.5 Z"/></g>
<g><path style="opacity:1" fill="#060f84" d="M 477.5,489.5 C 480.833,489.5 484.167,489.5 487.5,489.5C 499.5,489.5 511.5,489.5 523.5,489.5C 528.844,489.334 534.177,489.501 539.5,490C 540.738,490.69 540.738,491.19 539.5,491.5C 518.473,492.155 497.806,491.488 477.5,489.5 Z"/></g>
<g><path style="opacity:1" fill="#152168" d="M 551.5,489.5 C 555.5,489.5 559.5,489.5 563.5,489.5C 563.5,490.5 563.5,491.5 563.5,492.5C 559.5,492.5 555.5,492.5 551.5,492.5C 551.5,491.5 551.5,490.5 551.5,489.5 Z"/></g>
<g><path style="opacity:1" fill="#071360" d="M 64.5,489.5 C 68.8461,489.334 73.1794,489.501 77.5,490C 77.9574,490.414 78.2907,490.914 78.5,491.5C 73.8804,492.493 69.2137,492.827 64.5,492.5C 64.5,491.5 64.5,490.5 64.5,489.5 Z"/></g>
<g><path style="opacity:1" fill="#315e87" d="M 475.5,489.5 C 476.167,489.5 476.833,489.5 477.5,489.5C 497.806,491.488 518.473,492.155 539.5,491.5C 539.5,492.167 539.167,492.5 538.5,492.5C 389.833,492.5 241.167,492.5 92.5,492.5C 177.332,491.501 262.332,491.167 347.5,491.5C 390.513,492.161 433.18,491.495 475.5,489.5 Z"/></g>
<g><path style="opacity:1" fill="#97bde0" d="M 91.5,492.5 C 91.8333,492.5 92.1667,492.5 92.5,492.5C 241.167,492.5 389.833,492.5 538.5,492.5C 538.389,493.117 538.056,493.617 537.5,494C 389.167,494.667 240.833,494.667 92.5,494C 91.944,493.617 91.6107,493.117 91.5,492.5 Z"/></g>
</svg>
